<svg width="24" height="24" viewBox="0 0 24 24" fill="none" xmlns="http://www.w3.org/2000/svg">
<path fill-rule="evenodd" clip-rule="evenodd" d="M17.9053 21H5.19205C3.43524 21 2 19.6472 2 17.9914V6.00862C2 4.35277 3.43524 3 5.19205 3H17.9053C19.6621 3 21.0974 4.35277 21.0974 6.00862V17.9914C21.0974 19.6546 19.67 21 17.9053 21ZM17.4104 7.22949C17.9302 7.22949 18.3516 6.83233 18.3516 6.34241C18.3516 5.85248 17.9302 5.45532 17.4104 5.45532C16.8906 5.45532 16.4692 5.85248 16.4692 6.34241C16.4692 6.83233 16.8906 7.22949 17.4104 7.22949ZM11.5485 16.8458C14.3881 16.8458 16.6901 14.6761 16.6901 11.9997C16.6901 9.32324 14.3881 7.15356 11.5485 7.15356C8.70894 7.15356 6.40698 9.32324 6.40698 11.9997C6.40698 14.6761 8.70894 16.8458 11.5485 16.8458Z" fill="white"/>
</svg>
