<svg width="24" height="24" viewBox="0 0 24 24" fill="none" xmlns="http://www.w3.org/2000/svg">
<path d="M6.31175 8.27759H2.32129V21.0029H6.31175V8.27759Z" fill="white"/>
<path d="M17.1081 8.00911C16.961 7.99072 16.8047 7.98152 16.6484 7.97233C14.4141 7.88038 13.1545 9.20441 12.7131 9.77447C12.5936 9.93078 12.5384 10.0227 12.5384 10.0227V8.32172H8.72266V21.0471H12.5384H12.7131C12.7131 19.7506 12.7131 18.4634 12.7131 17.1669C12.7131 16.4682 12.7131 15.7694 12.7131 15.0706C12.7131 14.2063 12.6488 13.2868 13.0809 12.4961C13.4487 11.8341 14.1107 11.5031 14.8555 11.5031C17.0622 11.5031 17.1081 13.4983 17.1081 13.6822C17.1081 13.6914 17.1081 13.7006 17.1081 13.7006V21.1022H21.0986V12.7995C21.0986 9.95837 19.655 8.28495 17.1081 8.00911Z" fill="white"/>
<path d="M4.31704 6.63408C5.5967 6.63408 6.63409 5.59671 6.63409 4.31704C6.63409 3.03738 5.5967 2 4.31704 2C3.03737 2 2 3.03738 2 4.31704C2 5.59671 3.03737 6.63408 4.31704 6.63408Z" fill="white"/>
</svg>
