<svg width="116" height="39" viewBox="0 0 116 39" fill="none" xmlns="http://www.w3.org/2000/svg">
<path d="M4.224 11.36C4.30933 10.8693 4.56533 10.4533 4.992 10.112C5.44 9.77067 5.94133 9.6 6.496 9.6H15.072C16.992 9.6 18.4853 10.0587 19.552 10.976C20.6187 11.8933 21.152 13.1947 21.152 14.88C21.152 16.48 20.7787 17.8667 20.032 19.04C19.3067 20.2133 18.2507 21.0987 16.864 21.696V21.824C18.3147 22.5067 19.04 23.7013 19.04 25.408C19.04 25.6427 18.9973 26.0373 18.912 26.592L18.432 29.344C18.2613 30.304 17.8027 31.04 17.056 31.552C16.3093 32.0427 15.3067 32.288 14.048 32.288L15.008 26.752C15.072 26.3253 15.104 25.952 15.104 25.632C15.104 24.0747 14.2933 23.296 12.672 23.296H5.92L4.864 29.344C4.71467 30.304 4.26667 31.04 3.52 31.552C2.79467 32.0427 1.80267 32.288 0.544 32.288L4.224 11.36ZM13.056 20C14.2933 20 15.296 19.5733 16.064 18.72C16.832 17.8667 17.216 16.768 17.216 15.424C17.216 14.592 16.9707 13.9627 16.48 13.536C15.9893 13.1093 15.2747 12.896 14.336 12.896H7.776L6.496 20H13.056ZM27.8905 32.288C26.7172 32.288 25.6612 32.0747 24.7225 31.648C23.8052 31.2213 23.0905 30.6347 22.5785 29.888C22.0665 29.12 21.8105 28.256 21.8105 27.296C21.8105 26.976 21.8425 26.656 21.9065 26.336L22.6745 21.92C22.8878 20.704 23.3785 19.6267 24.1465 18.688C24.9145 17.7493 25.8745 17.024 27.0265 16.512C28.1785 15.9787 29.4478 15.712 30.8345 15.712C32.5625 15.712 33.9598 16.1813 35.0265 17.12C36.1145 18.0587 36.6585 19.264 36.6585 20.736C36.6585 21.056 36.6265 21.3973 36.5625 21.76L36.2425 23.648C36.1572 24.0747 35.9225 24.4373 35.5385 24.736C35.1758 25.0347 34.7598 25.184 34.2905 25.184H25.5865L25.4265 26.112C25.3838 26.4533 25.3625 26.688 25.3625 26.816C25.3625 27.648 25.6185 28.288 26.1305 28.736C26.6638 29.1627 27.4318 29.376 28.4345 29.376C29.5012 29.376 30.3758 29.1307 31.0585 28.64C31.7625 28.1493 32.1892 27.4773 32.3385 26.624C32.4665 26.6027 32.6478 26.592 32.8825 26.592C33.5652 26.592 34.0878 26.7307 34.4505 27.008C34.8345 27.264 35.0265 27.6373 35.0265 28.128C35.0265 28.8533 34.6958 29.536 34.0345 30.176C33.3945 30.816 32.5198 31.328 31.4105 31.712C30.3225 32.096 29.1492 32.288 27.8905 32.288ZM33.1705 22.528L33.2985 21.76C33.3625 21.4613 33.3945 21.1947 33.3945 20.96C33.3945 20.2133 33.1278 19.6267 32.5945 19.2C32.0612 18.7733 31.3038 18.56 30.3225 18.56C29.2772 18.56 28.3705 18.8587 27.6025 19.456C26.8558 20.032 26.3865 20.8 26.1945 21.76L26.0665 22.528H33.1705Z" fill="#5454D4"/>
<path d="M40.528 32C40.0587 32 39.664 31.8507 39.344 31.552C39.024 31.2533 38.864 30.8907 38.864 30.464L38.896 30.208L42.224 11.36C42.3093 10.8693 42.5653 10.4533 42.992 10.112C43.44 9.77067 43.9413 9.6 44.496 9.6H53.168C54.9173 9.6 56.2827 10.0373 57.264 10.912C58.2453 11.7867 58.736 12.992 58.736 14.528C58.736 15.7653 58.3947 16.9387 57.712 18.048C57.0507 19.1573 56.1653 19.9787 55.056 20.512L55.024 20.608C55.9627 20.928 56.6773 21.4293 57.168 22.112C57.6587 22.7733 57.904 23.5733 57.904 24.512C57.904 25.8347 57.5413 27.072 56.816 28.224C56.0907 29.376 55.1093 30.2933 53.872 30.976C52.656 31.6587 51.3333 32 49.904 32H40.528ZM51.408 19.168C51.984 19.168 52.5387 18.9867 53.072 18.624C53.6053 18.24 54.032 17.7387 54.352 17.12C54.672 16.5013 54.832 15.8507 54.832 15.168C54.832 14.4213 54.6293 13.856 54.224 13.472C53.84 13.0667 53.2747 12.864 52.528 12.864H45.712L44.624 19.168H51.408ZM50.384 28.704C51.4507 28.704 52.3253 28.3307 53.008 27.584C53.712 26.8373 54.064 25.8987 54.064 24.768C54.064 24.0213 53.84 23.4453 53.392 23.04C52.944 22.6133 52.304 22.4 51.472 22.4H44.048L42.928 28.704H50.384ZM74.2863 29.44C73.9663 31.3387 72.6543 32.288 70.3503 32.288L70.7023 30.304C70.9156 30.1333 71.2143 29.8133 71.5983 29.344L71.4383 29.216C70.6063 30.1973 69.6676 30.9547 68.6223 31.488C67.5983 32.0213 66.5209 32.288 65.3903 32.288C63.9609 32.288 62.7983 31.8507 61.9023 30.976C61.0063 30.08 60.5583 28.928 60.5583 27.52C60.5583 27.1787 60.5903 26.816 60.6543 26.432L62.1263 18.016C62.2756 17.2267 62.6703 16.6507 63.3103 16.288C63.9503 15.904 64.8996 15.712 66.1583 15.712L64.3023 26.208C64.2596 26.4 64.2383 26.6773 64.2383 27.04C64.2383 27.7653 64.4516 28.2987 64.8783 28.64C65.3263 28.9813 66.0196 29.152 66.9583 29.152C68.0463 29.152 69.0063 28.8213 69.8383 28.16C70.6916 27.4773 71.2036 26.6133 71.3743 25.568L72.7183 18.016C72.8676 17.2053 73.2623 16.6187 73.9023 16.256C74.5423 15.8933 75.4809 15.712 76.7183 15.712L74.2863 29.44ZM83.5213 13.888C82.9026 13.888 82.3906 13.7173 81.9852 13.376C81.6013 13.0133 81.4093 12.5547 81.4093 12C81.4093 11.2747 81.6973 10.6453 82.2733 10.112C82.8493 9.57867 83.5426 9.312 84.3533 9.312C84.9719 9.312 85.4733 9.49333 85.8573 9.856C86.2413 10.1973 86.4333 10.6347 86.4333 11.168C86.4333 11.8933 86.1453 12.5333 85.5693 13.088C84.9933 13.6213 84.3106 13.888 83.5213 13.888ZM80.9933 18.016C81.1426 17.2267 81.5373 16.6507 82.1773 16.288C82.8173 15.904 83.7453 15.712 84.9613 15.712L82.4653 29.984C82.3159 30.7733 81.9213 31.36 81.2812 31.744C80.6413 32.1067 79.7026 32.288 78.4653 32.288L80.9933 18.016ZM91.818 32.288C90.474 32.288 89.418 31.9253 88.65 31.2C87.882 30.4533 87.498 29.4613 87.498 28.224C87.498 27.8827 87.53 27.52 87.594 27.136L90.346 11.616C90.4953 10.8053 90.89 10.2187 91.53 9.856C92.17 9.49333 93.1087 9.312 94.346 9.312L91.21 27.008C91.1673 27.3493 91.146 27.584 91.146 27.712C91.146 28.224 91.2847 28.5973 91.562 28.832C91.8607 29.0453 92.3193 29.152 92.938 29.152C93.7487 29.152 94.538 28.9493 95.306 28.544C95.562 28.8427 95.69 29.2053 95.69 29.632C95.69 30.3787 95.3167 31.008 94.57 31.52C93.8233 32.032 92.906 32.288 91.818 32.288ZM102.994 32.288C101.458 32.288 100.199 31.8507 99.2178 30.976C98.2578 30.08 97.7778 28.9493 97.7778 27.584C97.7778 27.264 97.8098 26.9333 97.8738 26.592L98.8018 21.376C99.1004 19.6693 99.9218 18.304 101.266 17.28C102.631 16.2347 104.284 15.712 106.226 15.712C107.079 15.712 107.89 15.8933 108.658 16.256C109.447 16.5973 110.087 17.0773 110.578 17.696L110.738 17.536C110.546 17.2587 110.354 17.0347 110.162 16.864L111.058 11.84C111.207 11.008 111.623 10.3787 112.306 9.952C112.988 9.52533 113.927 9.312 115.122 9.312L111.538 29.696C111.388 30.5067 110.972 31.1467 110.29 31.616C109.628 32.064 108.775 32.288 107.73 32.288L108.05 30.528C108.327 30.2507 108.583 29.9627 108.818 29.664L108.69 29.536C107.815 30.496 106.919 31.2 106.002 31.648C105.106 32.0747 104.103 32.288 102.994 32.288ZM104.53 29.152C105.532 29.152 106.407 28.9067 107.154 28.416C107.922 27.904 108.37 27.2747 108.498 26.528L109.394 21.44C109.415 21.3547 109.426 21.2267 109.426 21.056C109.426 20.3947 109.138 19.8613 108.562 19.456C108.007 19.0293 107.26 18.816 106.322 18.816C105.212 18.816 104.316 19.0613 103.634 19.552C102.951 20.0213 102.524 20.704 102.354 21.6L101.522 26.368C101.479 26.6667 101.458 26.88 101.458 27.008C101.458 27.712 101.714 28.2453 102.226 28.608C102.759 28.9707 103.527 29.152 104.53 29.152Z" fill="white"/>
</svg>
