<svg width="68" height="68" viewBox="0 0 68 68" fill="none" xmlns="http://www.w3.org/2000/svg">
<path fill-rule="evenodd" clip-rule="evenodd" d="M34 65C51.6731 65 66 50.6731 66 33C66 15.3269 51.6731 1 34 1C16.3269 1 2 15.3269 2 33C2 50.6731 16.3269 65 34 65Z" fill="#F037DE" fill-opacity="0.1"/>
<g filter="url(#filter0_d_268_2268)">
<rect x="17.7146" y="34.9738" width="1.71429" height="2.85714" rx="0.857143" stroke="#F037DE" stroke-width="1.71429"/>
<rect x="-0.857143" y="0.857143" width="1.71429" height="2.85714" rx="0.857143" transform="matrix(-1 0 0 1 49.4288 33.8308)" stroke="#F037DE" stroke-width="1.71429"/>
<rect x="20.7144" y="32.2595" width="3.71429" height="7.71429" rx="1.85714" stroke="#F037DE" stroke-width="2"/>
<rect x="-1" y="1" width="3.71429" height="7.71429" rx="1.85714" transform="matrix(-1 0 0 1 46.2861 30.9739)" stroke="#F037DE" stroke-width="2"/>
<path d="M47.5402 23.0326C37.8212 11.6705 26.3332 15.5841 20.6521 22.5277C19.516 23.9812 22.0407 25.1975 22.6696 24.4213C30.7515 14.4479 41.3561 19.3715 45.7747 24.6738C46.4059 25.4313 48.2498 23.8622 47.5402 23.0326Z" stroke="#F037DE" stroke-width="2"/>
<path d="M18.5718 34.4355C18.5718 31.5318 18.997 26.9604 21.1432 24.688" stroke="#F037DE" stroke-width="2"/>
<path d="M49.4287 34.1499C49.4287 31.2462 49.0035 26.6748 46.8573 24.4023" stroke="#F037DE" stroke-width="2"/>
<path d="M49.429 37.8308C49.429 43.0069 46.0271 47.9787 37.4424 48.2817" stroke="#F037DE" stroke-width="2"/>
<rect x="33.6544" y="47.6505" width="3.0299" height="1.51495" rx="0.757475" stroke="#F037DE" stroke-width="1.51495"/>
</g>
<defs>
<filter id="filter0_d_268_2268" x="0.857422" y="0.857178" width="66.2856" height="67.0657" filterUnits="userSpaceOnUse" color-interpolation-filters="sRGB">
<feFlood flood-opacity="0" result="BackgroundImageFix"/>
<feColorMatrix in="SourceAlpha" type="matrix" values="0 0 0 0 0 0 0 0 0 0 0 0 0 0 0 0 0 0 127 0" result="hardAlpha"/>
<feOffset dy="2"/>
<feGaussianBlur stdDeviation="8"/>
<feComposite in2="hardAlpha" operator="out"/>
<feColorMatrix type="matrix" values="0 0 0 0 0.941176 0 0 0 0 0.215686 0 0 0 0 0.868627 0 0 0 1 0"/>
<feBlend mode="normal" in2="BackgroundImageFix" result="effect1_dropShadow_268_2268"/>
<feBlend mode="normal" in="SourceGraphic" in2="effect1_dropShadow_268_2268" result="shape"/>
</filter>
</defs>
</svg>
