<svg width="24" height="24" viewBox="0 0 24 24" fill="none" xmlns="http://www.w3.org/2000/svg">
<g clip-path="url(#clip0_239_1836)">
<path d="M2.46484 21.5744L3.81128 16.6575C2.98074 15.2185 2.54388 13.5861 2.54449 11.9137C2.54663 6.68197 6.80414 2.42554 12.0358 2.42554C14.5745 2.42661 16.9575 3.41476 18.7495 5.20828C20.5413 7.00179 21.5278 9.38582 21.5269 11.9214C21.5246 17.153 17.2665 21.41 12.0358 21.41C12.0355 21.41 12.0359 21.41 12.0358 21.41H12.0317C10.4432 21.4094 8.88255 21.011 7.49628 20.2549L2.46484 21.5744ZM7.72929 18.5373L8.01752 18.708C9.22846 19.4267 10.6169 19.8068 12.0327 19.8075H12.0358C16.3836 19.8075 19.9224 16.2693 19.9243 11.9208C19.925 9.81337 19.1053 7.83171 17.6159 6.34109C16.1264 4.85046 14.1459 4.02908 12.0387 4.02816C7.68732 4.02816 4.14865 7.56591 4.14697 11.9143C4.14636 13.4045 4.56324 14.8556 5.35303 16.1114L5.54071 16.4099L4.74359 19.32L7.72929 18.5373Z" fill="white"/>
<path d="M2.46484 21.5744L3.81128 16.6575C2.98074 15.2185 2.54388 13.5861 2.54449 11.9137C2.54663 6.68197 6.80414 2.42554 12.0358 2.42554C14.5745 2.42661 16.9575 3.41476 18.7495 5.20828C20.5413 7.00179 21.5278 9.38582 21.5269 11.9214C21.5246 17.153 17.2665 21.41 12.0358 21.41C12.0355 21.41 12.0359 21.41 12.0358 21.41H12.0317C10.4432 21.4094 8.88255 21.011 7.49628 20.2549L2.46484 21.5744ZM7.72929 18.5373L8.01752 18.708C9.22846 19.4267 10.6169 19.8068 12.0327 19.8075H12.0358C16.3836 19.8075 19.9224 16.2693 19.9243 11.9208C19.925 9.81337 19.1053 7.83171 17.6159 6.34109C16.1264 4.85046 14.1459 4.02908 12.0387 4.02816C7.68732 4.02816 4.14865 7.56591 4.14697 11.9143C4.14636 13.4045 4.56324 14.8556 5.35303 16.1114L5.54071 16.4099L4.74359 19.32L7.72929 18.5373Z" fill="white"/>
<path fill-rule="evenodd" clip-rule="evenodd" d="M9.6636 7.94709C9.48599 7.55219 9.29891 7.54425 9.12985 7.53739C8.9916 7.53144 8.83337 7.53174 8.67544 7.53174C8.51736 7.53174 8.2604 7.59125 8.04312 7.82853C7.82568 8.0658 7.21289 8.63953 7.21289 9.80638C7.21289 10.9734 8.0628 12.1009 8.18136 12.2592C8.29992 12.4175 9.82198 14.8885 12.2324 15.8391C14.2357 16.6292 14.6433 16.4721 15.0782 16.4325C15.513 16.393 16.4812 15.8588 16.6788 15.3051C16.8766 14.7513 16.8766 14.2768 16.8172 14.1774C16.7579 14.0787 16.5998 14.0194 16.3626 13.9008C16.1255 13.7822 14.9596 13.2083 14.7422 13.1293C14.5247 13.0501 14.3667 13.0107 14.2086 13.2482C14.0503 13.4853 13.5962 14.0194 13.4578 14.1774C13.3194 14.336 13.181 14.3558 12.9439 14.2371C12.7068 14.1182 11.943 13.868 11.0369 13.06C10.3319 12.4315 9.85586 11.6551 9.71746 11.4177C9.57922 11.1806 9.71517 11.0634 9.82168 10.9339C10.0135 10.7005 10.3353 10.2811 10.4143 10.123C10.4934 9.96461 10.4538 9.82622 10.3946 9.7075C10.3353 9.58894 9.87432 8.41614 9.6636 7.94709V7.94709Z" fill="white"/>
</g>
<defs>
<clipPath id="clip0_239_1836">
<rect width="20" height="20" fill="white" transform="translate(2 2)"/>
</clipPath>
</defs>
</svg>
